<?xml version="1.0" encoding="utf-8"?>
<!-- Generator: Adobe Illustrator 23.0.3, SVG Export Plug-In . SVG Version: 6.00 Build 0)  -->
<svg version="1.1" id="Layer_1" xmlns="http://www.w3.org/2000/svg" xmlns:xlink="http://www.w3.org/1999/xlink" x="0px" y="0px"
	 viewBox="0 0 1636.38 306.1" style="enable-background:new 0 0 1636.38 306.1;" xml:space="preserve">
<style type="text/css">
	.st0{fill:#F15A22;}
	.st1{fill:#FFFFFF;}
	.st2{fill:#474748;}
	.st3{fill:#5D5E5E;}
	.st4{opacity:0.7;}
	.st5{fill:#333333;}
	.st6{fill:#EF4136;}
	.st7{fill:#0072BC;}
	.st8{fill:#39B54A;}
	.st9{opacity:0.6;}
	.st10{fill-rule:evenodd;clip-rule:evenodd;fill:#FFFFFF;}
	.st11{fill:#F15A29;}
</style>
<g>
	<g>
		<g>
			<g>
				<path class="st0" d="M252.78,202.11v-98.13h79.87c5.38,0,10.02,0.49,13.88,1.46c3.84,0.99,6.96,2.37,9.33,4.18
					c2.38,1.82,4.09,4.04,5.24,6.69c1.11,2.65,1.66,5.6,1.66,8.85v9.06c0,4.31-1.02,7.89-3.13,10.82c-2.09,2.92-4.89,4.75-8.43,5.49
					c3.7,1.02,6.78,2.76,9.19,5.23c2.4,2.46,3.64,6.07,3.64,10.8v14.35c0,2.79-0.5,5.47-1.47,8.03c-0.98,2.56-2.67,4.8-5.03,6.75
					c-2.38,1.97-5.55,3.53-9.56,4.67c-3.99,1.17-8.99,1.74-15.05,1.74H252.78z M344.23,126.14c0-2.69-0.85-4.64-2.53-5.84
					c-1.67-1.21-4.69-1.82-9.06-1.82H271.3v25.5h61.34c4.37,0,7.39-0.6,9.06-1.78c1.68-1.22,2.53-3.18,2.53-5.88V126.14z
					 M345.48,166.84c0-3.06-1.18-5.2-3.5-6.47c-2.33-1.26-5.35-1.87-9.07-1.87H271.3v29.12h61.62c3.72,0,6.74-0.69,9.07-2.08
					c2.32-1.41,3.5-4.1,3.5-8.1V166.84z"/>
			</g>
		</g>
		<g>
			<g>
				<path class="st0" d="M487.65,202.11l-50.6-79.04l-51.43,79.04h-20.64l65.23-98.13h13.53l64.8,98.13H487.65z"/>
			</g>
		</g>
		<g>
			<g>
				<path class="st0" d="M516.93,202.11v-98.13h18.52v98.13H516.93z"/>
			</g>
		</g>
		<g>
			<g>
				<path class="st0" d="M598.48,202.11v-83.64h-51.43v-14.49h120.03v14.49H617v83.64H598.48z"/>
			</g>
		</g>
		<g>
			<g>
				<path class="st0" d="M708.46,202.11c-5.59,0-10.32-0.57-14.23-1.74c-3.89-1.14-7.09-2.77-9.54-4.87
					c-2.47-2.08-4.24-4.59-5.38-7.48c-1.11-2.85-1.67-6.08-1.67-9.61v-74.43h18.56v74.57c0,6.03,4.07,9.06,12.26,9.06h60.91
					c8.19,0,12.27-3.02,12.27-9.06v-74.57h18.53v74.43c0,3.53-0.37,6.76-1.04,9.61c-0.7,2.89-2.04,5.4-4.04,7.48
					c-2.01,2.1-4.75,3.73-8.22,4.87c-3.49,1.17-8.01,1.74-13.61,1.74H708.46z"/>
			</g>
		</g>
		<g>
			<g>
				<path class="st0" d="M817.72,202.11v-14.5h85.34c8.15,0,12.25-3.02,12.25-9.06v-12.41c0-6.04-4.1-9.06-12.25-9.06h-57.73
					c-5.57,0-10.32-0.58-14.21-1.73c-3.9-1.16-7.09-2.79-9.56-4.9c-2.46-2.07-4.25-4.55-5.37-7.43c-1.1-2.91-1.67-6.11-1.67-9.64
					v-5.71c0-3.52,0.57-6.74,1.67-9.61c1.12-2.86,2.9-5.36,5.37-7.45c2.47-2.1,5.66-3.73,9.56-4.87c3.89-1.15,8.64-1.75,14.21-1.75
					h83.07v14.49h-83.07c-8.18,0-12.27,3.02-12.27,9.06v5.99c0,6.05,4.08,9.07,12.27,9.07h57.73c5.55,0,10.29,0.56,14.21,1.74
					c3.88,1.17,7.08,2.77,9.54,4.88c2.45,2.1,4.25,4.57,5.37,7.46c1.12,2.88,1.68,6.09,1.68,9.6v12.13c0,3.53-0.57,6.76-1.68,9.61
					c-1.12,2.89-2.91,5.4-5.37,7.48c-2.46,2.1-5.66,3.73-9.54,4.87c-3.92,1.17-8.66,1.74-14.21,1.74H817.72z"/>
			</g>
		</g>
		<g>
			<g>
				<path class="st0" d="M948.9,202.11v-14.5h85.31c8.2,0,12.27-3.02,12.27-9.06v-12.41c0-6.04-4.07-9.06-12.27-9.06H976.5
					c-5.57,0-10.3-0.58-14.2-1.73c-3.93-1.16-7.1-2.79-9.55-4.9c-2.47-2.07-4.25-4.55-5.35-7.43c-1.13-2.91-1.7-6.11-1.7-9.64v-5.71
					c0-3.52,0.57-6.74,1.7-9.61c1.11-2.86,2.88-5.36,5.35-7.45c2.46-2.1,5.63-3.73,9.55-4.87c3.9-1.15,8.64-1.75,14.2-1.75h83.09
					v14.49H976.5c-8.17,0-12.25,3.02-12.25,9.06v5.99c0,6.05,4.08,9.07,12.25,9.07h57.71c5.59,0,10.33,0.56,14.22,1.74
					c3.91,1.17,7.1,2.77,9.55,4.88c2.47,2.1,4.26,4.57,5.36,7.46c1.12,2.88,1.68,6.09,1.68,9.6v12.13c0,3.53-0.56,6.76-1.68,9.61
					c-1.11,2.89-2.89,5.4-5.36,7.48c-2.45,2.1-5.64,3.73-9.55,4.87c-3.89,1.17-8.63,1.74-14.22,1.74H948.9z"/>
			</g>
		</g>
		<g>
			<g>
				<path class="st0" d="M1187.55,202.11l-50.6-79.04l-51.43,79.04h-20.64l65.24-98.13h13.52l64.81,98.13H1187.55z"/>
			</g>
		</g>
		<g>
			<g>
				<path class="st0" d="M1216.12,202.11v-98.13h18.68v83.63h79.61v14.5H1216.12z"/>
			</g>
		</g>
		<g>
			<g>
				<path class="st0" d="M1439.56,202.11l-50.6-79.04l-51.43,79.04h-20.64l65.25-98.13h13.52l64.81,98.13H1439.56z"/>
			</g>
		</g>
		<g>
			<g>
				<path class="st0" d="M1600.43,202.11v-68.73l-49.9,68.73h-15.19l-50.03-68.59v68.59h-17.15v-98.13h17.28l58.28,80.14
					l57.98-80.14h15.91v98.13H1600.43z"/>
			</g>
		</g>
	</g>
	<g>
		<g>
			<g>
				<polygon class="st1" points="185.92,48.26 178.55,41.13 172.77,50.36 179.28,60.7 				"/>
			</g>
		</g>
		<g>
			<path class="st2" d="M189.95,79.76l-24.21-38.63l-7.37,7.13l18.85,35.35c-0.01,39.49-0.01,129.02-0.01,191.64H88.23
				c-0.06,0.2-0.14,0.39-0.21,0.59c-1.45,3.98-4.62,7.26-8.71,9.12c-1.35,0.61-2.81,1.07-4.34,1.35c-0.21,0.03-0.42,0.06-0.62,0.08
				h0.19c-0.07,0.01-0.15,0.02-0.22,0.03v0.02c-1.06,0.16-2.08,0.19-2.9,0.19v-0.01c-0.97-0.01-1.93-0.08-2.86-0.23
				c-2.65-0.42-5.09-1.38-7.17-2.76c-2.74-1.79-4.88-4.29-6.09-7.2c-0.08-0.19-0.15-0.39-0.22-0.59c-0.07-0.2-0.15-0.39-0.21-0.59
				H32.09v-30.28h3.25c4.59,0,8.55-1.62,11.78-4.83c3.24-3.21,4.88-7.16,4.88-11.75v-47.97c0-4.38-1.69-8.18-5.01-11.28
				c-3.31-3.09-7.23-4.66-11.65-4.66c-4.59,0-8.51,1.6-11.66,4.75c-3.16,3.15-4.76,7.08-4.76,11.67v37.48h-0.14v68.59h52.62v-0.01
				h2.94v0.01h115.63v-11.14c0-57.6,0-138.31-0.02-182.11h-0.01V79.76z M31.06,182.11c0-4.21,2.37-5.09,4.37-5.09
				c2.03,0,4.45,0.88,4.45,5.09v46.6c0,2.91-1.57,4.45-4.53,4.45h-4.28V182.11z"/>
		</g>
		<g>
			<g>
				<path class="st2" d="M36.19,155.66h37.56h17.79h55.34v-0.01h0v-43.06h-12.05v31.29h-7.63v-31.29h-12.13v31.29h-7.63V131.8
					c0.01,0,0.01,0,0.02-0.01v-18.47h-0.02v-0.74H95.29v27.74c-0.11,2.34-1.36,3.52-3.75,3.52H36.19c-2.52,0-3.78-1.28-3.78-3.85
					v-26.67H20.28v26.67c0,4.29,1.57,7.97,4.7,11.05C28.12,154.12,31.86,155.66,36.19,155.66z"/>
			</g>
			<g>
				<path class="st2" d="M146.88,156.25H36.19c-4.48,0-8.39-1.61-11.63-4.79c-3.24-3.18-4.88-7.04-4.88-11.47v-27.26h13.32v27.26
					c0,2.26,0.98,3.26,3.18,3.26h55.35c2.06,0,3.07-0.94,3.16-2.95l0-28.3h13.32v31.29h6.45V112h13.32v31.29h6.45V112h13.24
					l-0.02,43.8l-0.11,0.45L146.88,156.25z M20.88,113.91v26.08c0,4.1,1.52,7.68,4.52,10.63c3,2.95,6.64,4.45,10.8,4.45h110.09
					l0-41.89h-10.87v31.29h-8.82v-31.29h-10.95v31.29h-8.81v-31.29H95.89v27.15c-0.13,2.7-1.63,4.11-4.35,4.11H36.19
					c-2.86,0-4.37-1.54-4.37-4.45v-26.08H20.88z"/>
			</g>
		</g>
		<g>
			<g>
				<rect x="115.06" y="158.85" class="st2" width="12.13" height="14.2"/>
			</g>
			<g>
				<path class="st2" d="M127.79,173.64h-13.32v-15.38h13.32V173.64z M115.65,172.46h10.95v-13.02h-10.95V172.46z"/>
			</g>
		</g>
		<g>
			<g>
				<rect x="95.29" y="158.85" class="st2" width="12.13" height="14.2"/>
			</g>
			<g>
				<path class="st2" d="M108.02,173.64H94.7v-15.38h13.32V173.64z M95.89,172.46h10.95v-13.02H95.89V172.46z"/>
			</g>
		</g>
		<g>
			<g>
				<rect x="66.39" y="112.59" class="st2" width="12.13" height="14.2"/>
			</g>
			<g>
				<path class="st2" d="M79.11,127.38H65.8V112h13.31V127.38z M66.98,126.19h10.95v-13.02H66.98V126.19z"/>
			</g>
		</g>
		<g>
			<g>
				<rect x="51.31" y="112.59" class="st2" width="12.14" height="14.2"/>
			</g>
			<g>
				<path class="st2" d="M64.04,127.38H50.72V112h13.32V127.38z M51.9,126.19h10.95v-13.02H51.9V126.19z"/>
			</g>
		</g>
		<g>
			<g>
				<rect x="134.83" y="158.85" class="st2" width="12.05" height="14.2"/>
			</g>
			<g>
				<path class="st2" d="M147.47,173.64h-13.24v-15.38h13.24V173.64z M135.42,172.46h10.87v-13.02h-10.87V172.46z"/>
			</g>
		</g>
		<g>
			<polygon class="st3" points="172.17,24.93 172.19,24.33 172.15,24.33 			"/>
		</g>
		<g class="st4">
			<polygon class="st5" points="185.07,49.84 176.92,43.72 178.02,41.96 			"/>
		</g>
		<g class="st4">
			<polygon class="st5" points="159.11,50.04 167.28,43.73 165.81,41.27 			"/>
		</g>
		<g>
			<polygon class="st0" points="104.44,29.74 64.06,38.79 64.06,106.94 105.1,106.94 105.1,106.39 105.1,29.6 			"/>
		</g>
		<g>
			<polygon class="st6" points="63.84,38.84 63.84,106.94 64.06,106.94 64.06,38.79 			"/>
		</g>
		<g>
			<polygon class="st7" points="22.8,48.04 22.8,106.94 63.84,106.94 63.84,38.84 			"/>
		</g>
		<g>
			<polygon class="st8" points="145.7,20.5 105.1,29.6 105.1,106.89 145.7,106.89 			"/>
		</g>
		<g>
			<g>
				<rect x="55.76" y="168.01" class="st2" width="12.13" height="95.06"/>
			</g>
			<g>
				<path class="st2" d="M68.48,263.66H55.17v-96.24h13.31V263.66z M56.35,262.48H67.3v-93.88H56.35V262.48z"/>
			</g>
		</g>
		<g>
			<g class="st9">
				<path class="st1" d="M142.5,97.51V61.2c0,0-5.51-11.32-21.91-17.55c0,10.74,0,38.73,0,38.73S132.2,83.01,142.5,97.51z"/>
			</g>
			<g class="st9">
				<path class="st1" d="M142.5,99.43c0,0-15.13-11.68-27.77-10.6c0-6.95,0-40.21,0-40.21s2.1,0.54,4.19,1.56
					c0,5.03,0,35.18,0,35.18S131.55,86.13,142.5,99.43z"/>
			</g>
			<g class="st9">
				<path class="st1" d="M142.5,97.51V62.39c-13.89-10.24-21.91-12.05-21.91-12.05c0,12.11,0,32.03,0,32.03S132.2,83.01,142.5,97.51
					z"/>
			</g>
			<g class="st9">
				<path class="st1" d="M142.5,101.24c0,0-20.48-8.93-33.78-6.09c0-9.42,0-41.13,0-41.13s1.94,0.12,4.36,0.69
					c0,4.29,0,37.33,0,37.33S128.85,89.89,142.5,101.24z"/>
			</g>
			<g>
				<path class="st1" d="M142.5,97.51V62.88c-8.53-3.27-16.1-5.42-21.91-6.8c0,11.24,0,26.3,0,26.3S132.2,83.01,142.5,97.51z"/>
			</g>
			<g>
				<path class="st1" d="M118.93,55.74c0-2.53,0-4.53,0-5.57c-2.1-1.02-4.19-1.56-4.19-1.56s0,2.51,0,6.26
					C115.97,55.11,117.37,55.4,118.93,55.74z"/>
			</g>
		</g>
		<g>
			<g>
				<path class="st10" d="M42.74,96.45c0.52-4.07,1.05-8.18,1.61-12.57c3.21,3.13,6.17,6.07,9.18,8.95
					c1.41,1.36,2.93,1.42,3.86,0.18c0.91-1.21,0.72-2.33-0.38-3.4c-3.53-3.42-6.99-6.91-10.57-10.28c-1.07-1-1.48-1.99-1.11-3.38
					c0.15-0.58,0.16-1.2,0.24-1.8c0.47-3.5,0.6-3.67,4.08-3.21c5.51,0.73,9.36,3.74,11.14,8.99c1.86,5.51,0.48,10.39-3.79,14.34
					C53.21,97.77,47.62,98.6,42.74,96.45z"/>
			</g>
			<g class="st9">
				<path class="st10" d="M43.43,76.61c-3.54-0.44-6.93-0.87-10.61-1.33c0.61-4.4,1.34-11.12,2.21-15.36
					c0.53-2.59,3.38-4.25,5.48-3.82c2.71,0.56,4.97,3.34,4.71,6.26C44.89,66.29,43.95,72.58,43.43,76.61z"/>
			</g>
			<g>
				<path class="st10" d="M29.09,77.13c0.65,0.11,1.14,0.19,1.67,0.28c0,0.29,0.01,0.49-0.02,0.68c-0.43,3.34-1.38,10.23-1.77,13.57
					c-0.42,3.62,1.01,5.14,5.15,5.63c3.08,0.36,4.96-1.12,5.4-4.31c0.39-2.92,1.22-9.41,1.6-12.49c-2.9-0.39-5.68-0.76-8.47-1.13
					c-0.13-0.17-0.26-0.34-0.39-0.51c0.48-0.39,0.99-1.16,1.43-1.12c3.14,0.3,6.27,0.76,9.47,1.17c-0.5,3.86-1.41,11.16-1.96,14.89
					c-0.58,3.92-3.35,5.79-7.62,5.27c-4.46-0.54-6.83-2.98-6.46-6.9c0.32-3.48,1.33-10.5,1.77-13.96
					C28.91,77.92,28.98,77.66,29.09,77.13z"/>
			</g>
			<g>
				<path class="st10" d="M36.53,55.92c-2.85,1.5-3.61,4.01-3.87,6.91c-0.29,3.2-1.12,8.76-1.54,12.01c-1.37,0.3-1.87-0.06-1.65-1.5
					c0.48-3.19,1.14-8.77,1.59-11.96C31.54,58.06,33.05,56.53,36.53,55.92z"/>
			</g>
		</g>
		<g>
			<path class="st1" d="M84.36,96.16c-0.01-0.04,0-0.08,0-0.11c0.02-0.12,0.07-0.24,0.06-0.36c-0.02-0.29-0.07-0.57-0.1-0.86
				c-0.06-0.52-0.1-1.04-0.18-1.55c-0.08-0.52-0.17-1.03-0.27-1.55c-0.09-0.51-0.19-1.01-0.3-1.51c-0.15-0.69-0.29-1.39-0.48-2.08
				c-0.16-0.61-0.37-1.21-0.58-1.8c-0.2-0.58-0.43-1.16-0.65-1.73c-0.08-0.2-0.16-0.39-0.28-0.56c-0.05-0.07-0.2-0.15-0.26-0.12
				c-0.08,0.03-0.16,0.17-0.15,0.26c0.01,0.13,0.09,0.25,0.14,0.38c0.25,0.63,0.53,1.24,0.74,1.88c0.28,0.83,0.52,1.68,0.75,2.52
				c0.18,0.66,0.32,1.34,0.45,2.01c0.12,0.65,0.21,1.31,0.31,1.97c0.03,0.18,0.04,0.36,0.07,0.54c0.08,0.5,0.18,0.99,0.23,1.49
				c0.07,0.73,0.11,1.47,0.16,2.2c0.01,0.19,0,0.39,0.05,0.57c0.03,0.11,0.15,0.27,0.25,0.28c0.12,0.02,0.25-0.09,0.25-0.27
				c-0.01-0.12,0-0.23,0-0.35c0.02,0,0.04-0.01,0.06-0.01C84.55,96.97,84.45,96.57,84.36,96.16z"/>
		</g>
		<g>
			<path class="st1" d="M97.03,59.08l-0.58,0H71.59v0.66v39.15h1.38V60.42l24.06,0.03c0.97,0,1.77,0.79,1.77,1.77
				c0,0.97-0.79,1.77-1.77,1.77H75.3v34.89h21.5c1.86,0,3.38-1.52,3.38-3.37V62.22C100.17,60.48,98.76,59.08,97.03,59.08z
				 M94.22,84.67c-0.17,0.4-0.38,0.78-0.53,1.19c-0.23,0.63-0.45,1.26-0.63,1.9c-0.18,0.63-0.33,1.28-0.48,1.92
				c-0.11,0.45-0.21,0.91-0.29,1.37c-0.11,0.57-0.22,1.15-0.3,1.72c-0.11,0.73-0.22,1.45-0.3,2.18c-0.11,1.05-0.2,2.09-0.3,3.14
				c-0.02,0.2-0.22,0.35-0.48,0.35c-0.61,0-1.22,0-1.83,0c-0.58,0-1.17,0-1.75,0c-1.17,0-2.34,0-3.5,0c-0.42,0-0.53-0.11-0.56-0.53
				c-0.06-0.87-0.12-1.74-0.21-2.6c-0.08-0.75-0.19-1.51-0.3-2.26c-0.09-0.58-0.19-1.17-0.3-1.75c-0.14-0.69-0.28-1.38-0.45-2.06
				c-0.18-0.7-0.37-1.39-0.59-2.07c-0.2-0.61-0.45-1.2-0.68-1.8c-0.16-0.42-0.33-0.83-0.48-1.26c-0.03-0.09,0.01-0.23,0.05-0.33
				c0.23-0.52,0.47-1.04,0.7-1.55c0.22-0.5,0.44-0.99,0.66-1.49c0.23-0.53,0.46-1.06,0.7-1.59c0.22-0.49,0.45-0.98,0.67-1.48
				c0.17-0.38,0.33-0.76,0.49-1.14c0.27-0.62,0.54-1.24,0.82-1.87c0.23-0.53,0.48-1.06,0.72-1.59c0.23-0.51,0.46-1.02,0.67-1.54
				c0.09-0.22,0.25-0.42,0.1-0.72c-0.17-0.34-0.02-0.64,0.25-0.84c0.39-0.29,0.85,0.02,0.92,0.39c0.05,0.26,0.04,0.54-0.17,0.76
				c-0.05,0.04-0.06,0.13-0.06,0.2c0,2.22,0,4.45,0,6.68c0,2.55-0.01,5.1,0,7.66c0,0.3-0.22,0.42-0.39,0.56
				c-0.55,0.44-0.74,1.03-0.65,1.69c0.09,0.66,0.44,1.18,1.11,1.43c0.64,0.23,1.51-0.11,1.81-0.73c0.15-0.31,0.27-0.62,0.26-0.97
				c0-0.63-0.27-1.14-0.76-1.51c-0.23-0.17-0.3-0.34-0.3-0.59c0-4.7,0-9.41,0-14.11c0-0.12-0.05-0.27-0.12-0.38
				c-0.24-0.4-0.17-0.86,0.19-1.1c0.39-0.25,0.77,0.03,0.88,0.36c0.07,0.22,0.03,0.43-0.06,0.66c-0.05,0.15,0.07,0.38,0.14,0.56
				c0.27,0.64,0.55,1.28,0.83,1.91c0.23,0.52,0.48,1.02,0.71,1.54c0.17,0.38,0.31,0.77,0.48,1.14c0.23,0.52,0.48,1.04,0.71,1.56
				c0.23,0.51,0.44,1.03,0.66,1.54c0.26,0.61,0.54,1.22,0.8,1.83c0.22,0.5,0.45,1,0.67,1.51c0.16,0.36,0.3,0.74,0.49,1.08
				C94.49,84.03,94.37,84.34,94.22,84.67z"/>
		</g>
		<g>
			<path class="st11" d="M93.79,83.07c-0.23-0.5-0.45-1-0.67-1.51c-0.27-0.61-0.54-1.21-0.8-1.82c-0.22-0.51-0.44-1.03-0.66-1.54
				c-0.23-0.52-0.48-1.04-0.71-1.56c-0.17-0.38-0.31-0.77-0.48-1.14c-0.23-0.52-0.48-1.03-0.71-1.54c-0.28-0.64-0.57-1.27-0.83-1.92
				c-0.08-0.18-0.2-0.41-0.14-0.57c0.08-0.23,0.13-0.44,0.06-0.66c-0.11-0.32-0.49-0.61-0.88-0.36c-0.36,0.23-0.44,0.69-0.19,1.09
				c0.07,0.11,0.12,0.25,0.12,0.38c0.01,4.7,0.01,9.41,0,14.11c0,0.26,0.07,0.43,0.3,0.59c0.49,0.36,0.76,0.87,0.76,1.51
				c0,0.35-0.11,0.67-0.26,0.97c-0.31,0.61-1.18,0.96-1.81,0.73c-0.67-0.25-1.01-0.78-1.11-1.43c-0.1-0.66,0.1-1.25,0.65-1.69
				c0.18-0.14,0.39-0.26,0.39-0.56c-0.01-2.55,0-5.11,0-7.66c0-2.23,0-4.45,0-6.68c0-0.07,0.02-0.15,0.06-0.2
				c0.21-0.22,0.23-0.5,0.17-0.76c-0.08-0.37-0.53-0.68-0.92-0.39c-0.27,0.2-0.42,0.51-0.25,0.84c0.15,0.3-0.01,0.5-0.1,0.72
				c-0.21,0.52-0.44,1.03-0.67,1.54c-0.24,0.53-0.48,1.06-0.72,1.59c-0.27,0.62-0.54,1.24-0.82,1.87c-0.16,0.38-0.32,0.76-0.49,1.14
				c-0.22,0.49-0.45,0.98-0.67,1.48c-0.23,0.53-0.46,1.06-0.7,1.59c-0.22,0.49-0.44,0.99-0.66,1.48c-0.24,0.52-0.48,1.03-0.7,1.55
				c-0.05,0.1-0.09,0.23-0.05,0.33c0.14,0.42,0.32,0.84,0.48,1.26c0.23,0.6,0.48,1.19,0.68,1.8c0.22,0.68,0.42,1.37,0.59,2.07
				c0.17,0.68,0.32,1.37,0.45,2.06c0.12,0.58,0.22,1.17,0.3,1.75c0.11,0.75,0.22,1.51,0.3,2.26c0.09,0.86,0.14,1.73,0.21,2.6
				c0.03,0.42,0.14,0.53,0.56,0.53c1.17,0,2.34,0,3.5,0c0.58,0,1.17,0,1.75,0c0.61,0,1.22,0,1.83,0c0.26,0,0.46-0.15,0.48-0.35
				c0.1-1.05,0.19-2.09,0.3-3.14c0.08-0.73,0.18-1.45,0.3-2.18c0.08-0.57,0.19-1.15,0.3-1.72c0.09-0.46,0.18-0.92,0.29-1.37
				c0.15-0.64,0.3-1.29,0.48-1.93c0.19-0.64,0.4-1.27,0.63-1.9c0.15-0.41,0.35-0.79,0.53-1.19c0.14-0.33,0.26-0.64,0.06-1.01
				C94.09,83.81,93.95,83.43,93.79,83.07z M84.58,98.23c0.01,0.18-0.12,0.29-0.25,0.27c-0.1-0.01-0.22-0.17-0.25-0.28
				c-0.05-0.18-0.04-0.38-0.05-0.57c-0.05-0.73-0.09-1.47-0.16-2.2c-0.05-0.5-0.15-0.99-0.23-1.49c-0.03-0.18-0.04-0.36-0.07-0.55
				c-0.1-0.66-0.18-1.32-0.31-1.97c-0.13-0.67-0.27-1.35-0.45-2.01c-0.23-0.85-0.47-1.69-0.75-2.52c-0.21-0.64-0.49-1.25-0.74-1.88
				c-0.05-0.13-0.13-0.25-0.14-0.38c0-0.09,0.08-0.23,0.15-0.26c0.06-0.03,0.21,0.05,0.26,0.12c0.11,0.18,0.2,0.37,0.28,0.56
				c0.22,0.58,0.45,1.15,0.65,1.73c0.21,0.6,0.41,1.2,0.58,1.8c0.18,0.69,0.33,1.39,0.48,2.08c0.11,0.5,0.2,1.01,0.3,1.51
				c0.1,0.52,0.19,1.03,0.27,1.55c0.08,0.52,0.12,1.04,0.18,1.55c0.03,0.29,0.08,0.58,0.1,0.86c0.01,0.12-0.04,0.24-0.06,0.36
				c-0.01,0.04-0.01,0.08,0,0.11c0.09,0.41,0.18,0.81,0.28,1.21c-0.02,0-0.04,0.01-0.06,0.01C84.58,98,84.57,98.11,84.58,98.23z"/>
		</g>
		<g>
			<path class="st11" d="M90.91,99.57c-2.28,0-4.57,0-6.85,0c-0.16,0-0.33,0-0.5,0c-0.21,0-0.34,0.11-0.34,0.31
				c-0.01,0.35-0.02,4.55,0.01,4.9c0.02,0.28,0.15,0.36,0.43,0.36c1.22,0,2.45,0,3.67,0c1.22,0,2.45,0,3.67,0
				c0.29,0,0.41-0.08,0.44-0.38c0.03-0.26,0.03-4.39,0.02-4.65C91.45,99.64,91.37,99.57,90.91,99.57z"/>
		</g>
		<g class="st9">
			<path class="st1" d="M96.45,51.75c0-1.73-1.41-3.14-3.15-3.14H67.93v50.27h1.38V49.98H93.3c0.98,0,1.77,0.79,1.77,1.77
				c0,0.97-0.81,1.79-1.77,1.79H71.59v5.5v0.03h24.85V51.75z"/>
		</g>
		<g>
			<g>
				<polygon class="st7" points="152.25,39.17 159.32,49.82 169.19,38.68 161.04,30.34 				"/>
			</g>
			<g>
				<polygon class="st0" points="172.17,19.12 161.8,29.58 169.91,37.88 172.17,35.32 174.38,37.81 182.55,29.58 				"/>
			</g>
			<g>
				<polygon class="st8" points="192.1,39.17 183.31,30.34 175.1,38.61 185.03,49.82 				"/>
			</g>
		</g>
		<g>
			<g>
				<path class="st2" d="M171.57,75.26l-6.65-12.29l-10.49,16.74v14.02h-0.05l-0.02,19.97c-0.01,19.73-0.01,43.85-0.01,67.76
					l-0.3,71.48c0,2.26-0.98,3.26-3.27,3.26c-2.26,0-3.27-1.06-3.27-3.43v-77.12h-13.23v74.63c0,3.46-0.14,4.21-0.21,4.37
					c-0.39,1.04-1.42,1.54-3.14,1.54c-1.41,0-2.29-0.43-2.67-1.33c-0.2-0.46-0.44-1.62-0.44-4.51v-74.71h-13.32v74.71
					c0,5.84-2.52,5.84-3.35,5.84c-0.77,0-3.1,0-3.1-5.92v-74.63H94.76v77.12c0,2.37-1.01,3.43-3.27,3.43h-0.24
					c-2.04,0-2.95-0.91-2.95-2.94v-85.85H74.99v101.19c0,2.04-0.97,2.95-3.15,2.95c-2.28,0-3.31-0.91-3.31-2.95v-0.59H55.23v0.59
					c0,4.53,1.6,8.43,4.75,11.59c3.15,3.15,7.05,4.75,11.59,4.75c4.53,0,8.49-1.61,11.78-4.78c3.23-3.12,4.9-6.93,4.96-11.3
					c0.58,0.11,1.17,0.19,1.79,0.25v0.09l2.87-0.04v-0.04c3.13-0.27,5.95-1.4,8.4-3.36c2.85,2.28,6.17,3.44,9.89,3.44
					c4.12,0,7.4-0.66,9.76-1.97c1.93,1.33,5.07,1.97,9.6,1.97c4.02,0,7.5-1.16,10.37-3.44c2.49,2,5.34,3.13,8.49,3.38v0.07
					l2.71-0.03v-0.03c3.95-0.29,7.41-1.87,10.31-4.72c3.24-3.18,4.88-7.04,4.88-11.47l-0.24-51.44l0-96.01l-0.01,0l0.01-21.91
					L171.57,75.26z"/>
			</g>
		</g>
	</g>
</g>
</svg>
